<?xml version="1.0" encoding="utf-8"?>
<!-- Generator: Adobe Illustrator 16.0.0, SVG Export Plug-In . SVG Version: 6.00 Build 0)  -->
<!DOCTYPE svg PUBLIC "-//W3C//DTD SVG 1.1//EN" "http://www.w3.org/Graphics/SVG/1.1/DTD/svg11.dtd">
<svg version="1.1" id="Layer_1" xmlns="http://www.w3.org/2000/svg" xmlns:xlink="http://www.w3.org/1999/xlink" x="0px" y="0px"
	 width="718.2px" height="128.522px" viewBox="0 0 718.2 128.522" enable-background="new 0 0 718.2 128.522" xml:space="preserve">
<text transform="matrix(0.9736 0 0 1 -1720.939 -584.2979)" font-family="'Montserrat-Regular'" font-size="34.5792">Technology Innovation &amp; Excellence</text>
<g>
	<g>
		<path fill="#F7F7F7" d="M182.948,39.766l25.773,54.076l25.648-54.076h22.236v88.44h-17.941V68.572l-23.498,50.663h-13.014
			l-23.5-50.663v59.634h-18.068v-88.44H182.948z"/>
		<path fill="#F7F7F7" d="M334.55,111.024h-40.936l-6.949,17.182h-20.592l38.406-88.44h20.596l37.777,88.44h-21.352L334.55,111.024z
			 M328.108,94.979L314.21,60.613l-14.023,34.366H328.108z"/>
		<path fill="#F7F7F7" d="M388.743,39.766l18.443,27.038l18.576-27.038h23.625l-29.439,42.326l31.965,46.114h-23.879l-20.848-29.438
			l-20.465,29.438h-23.373l31.711-45.231l-29.563-43.209H388.743z"/>
	</g>
	<g>
		<path fill="#F7F7F7" d="M492.968,53.159c-8.719,0-14.404,3.284-14.404,9.222c0,19.33,47.76,8.971,47.635,40.809
			c0,15.792-13.898,25.522-33.357,25.522c-13.898,0-27.037-5.688-36.133-14.025l6.445-12.886
			c9.096,8.337,20.467,12.886,29.939,12.886c10.361,0,16.555-3.916,16.555-10.737c0-19.711-47.76-8.719-47.76-40.178
			c0-15.161,13.012-24.636,32.219-24.636c11.494,0,22.742,3.664,30.953,9.096l-6.189,13.14
			C509.265,55.559,499.665,53.159,492.968,53.159z"/>
		<path fill="#F7F7F7" d="M630.042,83.986c0,25.269-20.467,44.853-46.873,44.853c-26.404,0-46.873-19.584-46.873-44.853
			c0-25.396,20.469-44.599,46.873-44.599C609.575,39.387,630.042,58.717,630.042,83.986z M551.458,83.986
			c0,17.563,14.529,31.46,31.838,31.46s31.459-13.897,31.459-31.46s-14.15-31.207-31.459-31.207
			C565.86,52.779,551.458,66.424,551.458,83.986z"/>
		<path fill="#F7F7F7" d="M716.2,69.962c0,19.962-12.762,31.587-34.994,31.587h-20.342v26.657h-14.91v-88.44h35.252
			C703.438,39.766,716.2,50.758,716.2,69.962z M701.923,70.341c0-11.624-7.705-17.182-21.352-17.182h-19.707v34.996h19.707
			C694.218,88.154,701.923,82.346,701.923,70.341z"/>
	</g>
	<g>
		<path fill="#F7F7F7" d="M51.021,123.572c-0.707-1.871-1.744-3.565-2.623-5.4c-0.922-1.818-1.853-3.644-2.765-5.434
			c-1.056-1.716-2.095-3.408-3.097-5.042c-1.039-1.655-2.033-3.252-2.98-4.771c-0.905-1.582-2.042-2.81-2.955-4.096
			c-3.848-5.047-6.417-8.418-6.417-8.418s3.741,2.063,9.362,5.156c1.387,0.828,3.043,1.566,4.529,2.657
			c1.548,1.051,3.178,2.157,4.86,3.303c1.71,1.181,3.464,2.393,5.255,3.625c1.689,1.375,3.408,2.77,5.127,4.165
			c1.521,1.302,3.16,2.529,4.609,3.901V88.257c0-7.95-4.761-18.885-10.588-24.291L12.588,23.97C6.77,18.56,2,20.637,2,28.589v63.888
			c0,7.951,4.77,18.884,10.588,24.295l2.399,2.218c5.827,5.411,14.786,9.84,22.733,9.84h11.753c1.217,0,2.379-0.197,3.507-0.481
			C52.346,126.788,51.685,125.2,51.021,123.572z"/>
		<path fill="#F7F7F7" d="M134.592,2.696L82.563,51.013c-5.828,5.41-10.598,16.34-10.598,24.293v37.665
			c0.833-1.001,1.674-2.004,2.522-3.034c2.213-2.407,4.503-4.892,6.822-7.421c2.31-2.524,4.627-5.086,7.205-7.445
			c2.497-2.397,4.994-4.791,7.454-7.146c2.374-2.411,4.986-4.531,7.493-6.581c2.497-2.05,4.895-4.027,7.179-5.907
			c1.135-0.935,2.237-1.837,3.311-2.716c1.101-0.84,2.237-1.56,3.303-2.299c8.44-5.738,14.069-9.572,14.069-9.572
			s-4.617,4.941-11.545,12.355c-0.842,0.932-1.774,1.85-2.64,2.888c-0.833,1.074-1.701,2.188-2.588,3.331
			c-1.754,2.274-3.616,4.669-5.54,7.151c-1.925,2.456-3.911,4.979-5.656,7.785c-1.799,2.733-3.635,5.506-5.47,8.281
			c-1.889,2.707-3.518,5.605-5.138,8.443c-1.611,2.816-3.204,5.587-4.742,8.267c-1.406,2.751-2.758,5.412-4.038,7.935
			c-0.215,0.415-0.402,0.801-0.608,1.21c0.984,0.219,2.013,0.344,3.062,0.344h17.443c7.949,0,19.218-4.425,25.044-9.838l5.685-5.277
			c5.825-5.409,10.588-16.341,10.588-24.292V7.315C145.18-0.635,140.417-2.714,134.592,2.696z"/>
	</g>
</g>
<g>
	<g>
		<path fill="#0776BC" d="M182.948,283.679l25.773,54.076l25.648-54.076h22.236v88.44h-17.941v-59.634l-23.498,50.663h-13.014
			l-23.5-50.663v59.634h-18.068v-88.44H182.948z"/>
		<path fill="#0776BC" d="M334.55,354.938h-40.936l-6.949,17.182h-20.592l38.406-88.44h20.596l37.777,88.44h-21.352L334.55,354.938z
			 M328.108,338.892l-13.898-34.366l-14.023,34.366H328.108z"/>
		<path fill="#0776BC" d="M388.743,283.679l18.443,27.038l18.576-27.038h23.625l-29.439,42.326l31.965,46.114h-23.879
			l-20.848-29.438l-20.465,29.438h-23.373l31.711-45.231l-29.563-43.209H388.743z"/>
	</g>
	<g>
		<path fill="#070909" d="M492.968,297.072c-8.719,0-14.404,3.283-14.404,9.222c0,19.33,47.76,8.971,47.635,40.809
			c0,15.792-13.898,25.522-33.357,25.522c-13.898,0-27.037-5.688-36.133-14.025l6.445-12.886
			c9.096,8.337,20.467,12.886,29.939,12.886c10.361,0,16.555-3.916,16.555-10.737c0-19.711-47.76-8.719-47.76-40.179
			c0-15.16,13.012-24.636,32.219-24.636c11.494,0,22.742,3.663,30.953,9.097l-6.189,13.139
			C509.265,299.472,499.665,297.072,492.968,297.072z"/>
		<path fill="#070909" d="M630.042,327.899c0,25.269-20.467,44.853-46.873,44.853c-26.404,0-46.873-19.584-46.873-44.853
			c0-25.396,20.469-44.599,46.873-44.599C609.575,283.301,630.042,302.63,630.042,327.899z M551.458,327.899
			c0,17.563,14.529,31.46,31.838,31.46s31.459-13.897,31.459-31.46s-14.15-31.207-31.459-31.207
			C565.86,296.692,551.458,310.337,551.458,327.899z"/>
		<path fill="#070909" d="M716.2,313.875c0,19.962-12.762,31.587-34.994,31.587h-20.342v26.657h-14.91v-88.44h35.252
			C703.438,283.679,716.2,294.672,716.2,313.875z M701.923,314.254c0-11.624-7.705-17.182-21.352-17.182h-19.707v34.995h19.707
			C694.218,332.067,701.923,326.259,701.923,314.254z"/>
	</g>
	<g>
		<path fill="#0776BC" d="M51.021,367.485c-0.707-1.871-1.744-3.565-2.623-5.4c-0.922-1.818-1.853-3.644-2.765-5.434
			c-1.056-1.716-2.095-3.408-3.097-5.042c-1.039-1.655-2.033-3.252-2.98-4.771c-0.905-1.582-2.042-2.81-2.955-4.096
			c-3.848-5.047-6.417-8.418-6.417-8.418s3.741,2.063,9.362,5.156c1.387,0.828,3.043,1.566,4.529,2.657
			c1.548,1.051,3.178,2.157,4.86,3.303c1.71,1.181,3.464,2.393,5.255,3.625c1.689,1.375,3.408,2.77,5.127,4.165
			c1.521,1.302,3.16,2.529,4.609,3.901V332.17c0-7.95-4.761-18.885-10.588-24.291l-40.752-39.996C6.77,262.473,2,264.551,2,272.502
			v63.889c0,7.951,4.77,18.884,10.588,24.295l2.399,2.218c5.827,5.411,14.786,9.84,22.733,9.84h11.753
			c1.217,0,2.379-0.197,3.507-0.481C52.346,370.701,51.685,369.113,51.021,367.485z"/>
		<path fill="#070909" d="M134.592,246.609l-52.029,48.316c-5.828,5.41-10.598,16.34-10.598,24.293v37.665
			c0.833-1.001,1.674-2.004,2.522-3.034c2.213-2.407,4.503-4.892,6.822-7.421c2.31-2.524,4.627-5.086,7.205-7.445
			c2.497-2.397,4.994-4.791,7.454-7.146c2.374-2.411,4.986-4.531,7.493-6.581c2.497-2.05,4.895-4.027,7.179-5.907
			c1.135-0.935,2.237-1.837,3.311-2.716c1.101-0.84,2.237-1.56,3.303-2.299c8.44-5.738,14.069-9.572,14.069-9.572
			s-4.617,4.941-11.545,12.355c-0.842,0.932-1.774,1.85-2.64,2.888c-0.833,1.074-1.701,2.188-2.588,3.331
			c-1.754,2.274-3.616,4.669-5.54,7.151c-1.925,2.456-3.911,4.979-5.656,7.785c-1.799,2.733-3.635,5.506-5.47,8.281
			c-1.889,2.707-3.518,5.605-5.138,8.443c-1.611,2.816-3.204,5.587-4.742,8.267c-1.406,2.751-2.758,5.412-4.038,7.935
			c-0.215,0.415-0.402,0.801-0.608,1.21c0.984,0.219,2.013,0.344,3.062,0.344h17.443c7.949,0,19.218-4.425,25.044-9.838l5.685-5.277
			c5.825-5.409,10.588-16.341,10.588-24.292v-82.116C145.18,243.278,140.417,241.199,134.592,246.609z"/>
	</g>
</g>
</svg>
